<?xml version="1.0" encoding="utf-8"?>
<!-- Generator: Adobe Illustrator 16.0.0, SVG Export Plug-In . SVG Version: 6.00 Build 0)  -->
<!DOCTYPE svg PUBLIC "-//W3C//DTD SVG 1.1//EN" "http://www.w3.org/Graphics/SVG/1.1/DTD/svg11.dtd">
<svg version="1.1" id="Layer_1" xmlns="http://www.w3.org/2000/svg" xmlns:xlink="http://www.w3.org/1999/xlink" x="0px" y="0px"
	 width="131px" height="130.996px" viewBox="0 0 131 130.996" enable-background="new 0 0 131 130.996" xml:space="preserve">
<polygon fill="#ffffff" points="-266.334,124.292 -258.424,124.292 -258.424,26.772 -209.829,77.994 -159.736,26.584 
	-159.736,124.292 -151.826,124.292 -151.826,7.134 -209.753,66.584 -266.334,6.947 "/>
<polygon fill="#ffffff" points="183.544,6.707 183.544,124.292 259.783,124.292 259.783,116.382 191.453,116.382 191.453,69.454 
	259.783,69.454 259.783,61.544 191.453,61.544 191.453,14.617 259.783,14.617 259.783,6.707 "/>
<rect x="152.591" y="6.707" fill="#ffffff" width="7.91" height="117.585"/>
<g>
	<defs>
		<rect id="SVGID_1_" x="-266.334" width="526.117" height="130.996"/>
	</defs>
	<clipPath id="SVGID_2_">
		<use xlink:href="#SVGID_1_"  overflow="visible"/>
	</clipPath>
	<path clip-path="url(#SVGID_2_)" fill="#ffffff" d="M-71.841,5.721c-33.169,0-60.155,26.986-60.155,60.153
		c0,33.169,26.986,60.155,60.155,60.155c33.167,0,60.153-26.985,60.153-60.155C-11.688,32.707-38.674,5.721-71.841,5.721
		 M-71.841,118.118c-28.808,0-52.245-23.438-52.245-52.245c0-28.808,23.437-52.243,52.245-52.243s52.243,23.435,52.243,52.243
		C-19.599,94.681-43.033,118.118-71.841,118.118"/>
	<polygon clip-path="url(#SVGID_2_)" fill="#ffffff" points="5.718,102.369 42.586,65.499 5.718,28.629 0.124,34.223 31.402,65.499 
		0.124,96.775 	"/>
	<polygon clip-path="url(#SVGID_2_)" fill="#ffffff" points="125.526,28.629 88.659,65.5 125.526,102.369 131.12,96.775 
		99.842,65.5 131.12,34.224 	"/>
	<polygon clip-path="url(#SVGID_2_)" fill="#ffffff" points="102.491,5.594 96.896,0 65.621,31.279 34.345,0 28.751,5.594 
		65.621,42.462 	"/>
	<polygon clip-path="url(#SVGID_2_)" fill="#ffffff" points="28.751,125.402 34.345,130.996 65.621,99.718 96.897,130.996 
		102.491,125.402 65.621,88.534 	"/>
	<polygon clip-path="url(#SVGID_2_)" fill="#ffffff" points="125.98,10.731 120.387,5.137 65.621,59.905 10.854,5.137 5.261,10.731 
		60.027,65.498 5.261,120.266 10.854,125.858 65.621,71.092 120.387,125.858 125.98,120.266 71.215,65.498 	"/>
</g>
</svg>
