<svg class="logo" xmlns="http://www.w3.org/2000/svg" viewBox="0 0 114.8 90" enable-background="new 0 0 114.8 90"><!-- Outline --><path class="owl-black" d="M76.8 22l4.7 43.9-23.9-10.1-23.9 10.1 4.7-43.9-6.1-19.9 14.1 1.9c2.6-2.4 6.6-4 11.2-4s8.6 1.6 11.2 4.1l14.2-2-6.2 19.9z"></path><!-- Owl main --><path class="owl-color" d="M57.6 52l-19.8 8.3 4.2-38.6-4.7-15.4 10.3 1.4 1.2-1.2c2-1.9 5.3-3.1 8.8-3.1 3.5 0 6.8 1.2 8.8 3.1l1.2 1.2 10.4-1.4-4.7 15.4 4.1 38.6-19.8-8.3z"></path><!-- Owl nose --><path class="owl-black" d="M57.6 24.7h19l-9.5 8.9-9.5 8.9-9.5-8.9-9.5-8.9z"></path><path class="nose-color" d="M47.5 28.5h20.1l-2.9 2.7-7.1 6.6z"></path><!-- Owl Border of the Eye --><circle class="owl-black" cx="69.6" cy="23.6" r="13.6"></circle><circle class="owl-black" cx="45.2" cy="23.6" r="13.6"></circle><!-- Owl Back of the Eye --><!-- Owl White Eye --><path class="logo-white" d="M45.2 33.7c-5.6 0-10.1-4.5-10.1-10.1s4.5-10.1 10.1-10.1 10.1 4.5 10.1 10.1-4.5 10.1-10.1 10.1z"></path><path class="logo-white" d="M69.6 33.7c-5.6 0-10.1-4.5-10.1-10.1s4.5-10.1 10.1-10.1 10.1 4.5 10.1 10.1-4.5 10.1-10.1 10.1z"></path><!-- Owl Inner Eye --><path class="owl-black" d="M45.2 30.2c-3.6 0-6.5-2.9-6.5-6.5s2.9-6.5 6.5-6.5 6.5 2.9 6.5 6.5-2.9 6.5-6.5 6.5z"></path><path class="owl-black" d="M69.6 30.2c-3.6 0-6.5-2.9-6.5-6.5s2.9-6.5 6.5-6.5 6.5 2.9 6.5 6.5-2.9 6.5-6.5 6.5z"></path><path class="logo-white" d="M42 23.7c-1.8 0-3.3-1.5-3.3-3.3 0-1.8 1.5-3.3 3.3-3.3 1.8 0 3.3 1.5 3.3 3.3 0 1.9-1.4 3.3-3.3 3.3z"></path><path class="logo-white" d="M66.4 23.7c-1.8 0-3.3-1.5-3.3-3.3 0-1.8 1.5-3.3 3.3-3.3 1.8 0 3.3 1.5 3.3 3.3 0 1.9-1.4 3.3-3.3 3.3z"></path><!-- Logotype --><g class="owl-black logotype"><path d="M16.3 89.9h-1.6l-3.4-7.6-3.3 7.6h-1.6l-6.4-12.8h3.9l3.3 7.2 3.4-7.5h1.5l3.4 7.7 3.3-7.3h3.9l-6.4 12.7zM36.5 89.9h-1.6l-3.4-7.6-3.3 7.6h-1.6l-6.4-12.7h3.9l3.3 7.2 3.4-7.5h1.5l3.4 7.7 3.3-7.3h3.9l-6.4 12.6zM56.7 89.9h-1.6l-3.4-7.6-3.3 7.6h-1.6l-6.4-12.7h3.9l3.3 7.2 3.4-7.5h1.5l3.4 7.7 3.3-7.3h3.9l-6.4 12.6zM72.8 89.6v-6.8c0-2.2-.7-3.1-2.4-3.1-1.8 0-2.6 1.1-2.6 3.5v6.4h-3.5v-18.1h3.5v7.3c1.1-1.4 2.2-2 3.9-2 1.4 0 2.8.5 3.6 1.5.7.8 1 1.8 1 3.5v7.8h-3.5zM81.6 83.9c.1 2.2 1.2 3.3 3 3.3 1.3 0 2.2-.5 3-1.7l3.2.5c-1 2.5-3.2 3.9-6.1 3.9-4.1 0-6.7-2.6-6.7-6.6s2.6-6.6 6.5-6.6 6.4 2.6 6.4 6.7v.5h-9.3zm3.1-4.7c-1.6 0-2.6.9-3 2.5h5.9c-.3-1.6-1.4-2.5-2.9-2.5zM101.1 80.3c-.6-.3-1-.4-1.6-.4-2 0-3 1.2-3 3.7v6h-3.5v-12.5h3.5v1.9c.9-1.6 2-2.3 3.6-2.3.5 0 .9.1 1.5.3l-.5 3.3zM105.5 83.9c.1 2.2 1.2 3.3 3 3.3 1.3 0 2.2-.5 3-1.7l3.2.5c-1 2.5-3.2 3.9-6.1 3.9-4.1 0-6.7-2.6-6.7-6.6s2.6-6.6 6.5-6.6 6.4 2.6 6.4 6.7v.5h-9.3zm3.1-4.7c-1.6 0-2.6.9-3 2.5h5.9c-.4-1.6-1.4-2.5-2.9-2.5z"></path></g></svg>
